<svg width="25.000000" height="20.564575" viewBox="0 0 25 20.5646" fill="none" xmlns="http://www.w3.org/2000/svg" xmlns:xlink="http://www.w3.org/1999/xlink">
	<desc>
			Created with Pixso.
	</desc>
	<defs/>
	<path id="Vector" d="M23.38 0L1.61 0C1.18 0 0.77 0.17 0.47 0.47C0.17 0.77 0 1.18 0 1.61L0 15.32C0 15.75 0.17 16.16 0.47 16.46C0.77 16.76 1.18 16.93 1.61 16.93L9.92 16.93L9.38 18.54L8.06 18.54C7.95 18.54 7.85 18.59 7.77 18.66C7.7 18.74 7.66 18.84 7.66 18.95L7.66 19.75L4.03 19.75C3.92 19.75 3.82 19.8 3.74 19.87C3.67 19.95 3.62 20.05 3.62 20.16C3.62 20.26 3.67 20.37 3.74 20.44C3.82 20.52 3.92 20.56 4.03 20.56L21.77 20.56C21.88 20.56 21.98 20.52 22.05 20.44C22.13 20.37 22.17 20.26 22.17 20.16C22.17 20.05 22.13 19.95 22.05 19.87C21.98 19.8 21.88 19.75 21.77 19.75L17.33 19.75L17.33 18.95C17.33 18.84 17.29 18.74 17.22 18.66C17.14 18.59 17.04 18.54 16.93 18.54L15.61 18.54L15.07 16.93L23.38 16.93C23.81 16.93 24.22 16.76 24.52 16.46C24.82 16.16 24.99 15.75 25 15.32L25 1.61C24.99 1.18 24.82 0.77 24.52 0.47C24.22 0.17 23.81 0 23.38 0ZM16.53 19.35L16.53 19.75L8.46 19.75L8.46 19.35L16.53 19.35ZM10.23 18.54L10.77 16.93L14.22 16.93L14.76 18.54L10.23 18.54ZM24.19 15.32C24.19 15.53 24.1 15.74 23.95 15.89C23.8 16.04 23.6 16.12 23.38 16.12L1.61 16.12C1.39 16.12 1.19 16.04 1.04 15.89C0.89 15.74 0.8 15.53 0.8 15.32L0.8 14.51L24.19 14.51L24.19 15.32ZM6.83 10.08L6.68 13.7L6.21 13.7L6.06 10.08L6.83 10.08ZM6.12 9.27L6.39 7.66L6.51 7.66L6.78 9.27L6.12 9.27ZM6.45 6.85C6.01 6.85 5.64 6.3 5.64 5.64C5.64 5.23 6.06 4.63 6.45 4.2C6.79 4.58 7.25 5.2 7.25 5.64C7.25 6.3 6.88 6.85 6.45 6.85ZM10.83 6.04L10.88 6.14L10.88 6.45L9.27 6.45L9.27 6.14L9.32 6.04L10.83 6.04ZM9.72 5.24L10.08 4.53L10.43 5.24L9.72 5.24ZM10.88 7.25L10.88 13.65C10.88 13.67 10.88 13.69 10.89 13.7L9.27 13.7C9.27 13.69 9.27 13.67 9.27 13.65L9.27 7.25L10.88 7.25ZM14.51 5.64L15.72 5.64L15.72 6.45L15.32 6.45C15.21 6.45 15.11 6.49 15.03 6.56C14.96 6.64 14.91 6.74 14.91 6.85C14.91 6.96 14.96 7.06 15.03 7.14C15.11 7.21 15.21 7.25 15.32 7.25L15.72 7.25L15.72 8.06L14.51 8.06C14.4 8.06 14.3 8.1 14.23 8.18C14.15 8.25 14.11 8.36 14.11 8.46C14.11 8.57 14.15 8.67 14.23 8.75C14.3 8.82 14.4 8.87 14.51 8.87L15.72 8.87L15.72 9.67L15.32 9.67C15.21 9.67 15.11 9.71 15.03 9.79C14.96 9.87 14.91 9.97 14.91 10.08C14.91 10.18 14.96 10.29 15.03 10.36C15.11 10.44 15.21 10.48 15.32 10.48L15.72 10.48L15.72 11.29L14.51 11.29C14.4 11.29 14.3 11.33 14.23 11.4C14.15 11.48 14.11 11.58 14.11 11.69C14.11 11.8 14.15 11.9 14.23 11.97C14.3 12.05 14.4 12.09 14.51 12.09L15.72 12.09L15.72 13.7L12.9 13.7L12.9 4.03L15.72 4.03L15.72 4.83L14.51 4.83C14.4 4.83 14.3 4.88 14.23 4.95C14.15 5.03 14.11 5.13 14.11 5.24C14.11 5.34 14.15 5.45 14.23 5.52C14.3 5.6 14.4 5.64 14.51 5.64ZM19.35 10.48L19.35 13.65C19.35 13.67 19.35 13.69 19.35 13.7L17.73 13.7C17.74 13.69 17.74 13.67 17.74 13.65L17.74 10.48L19.35 10.48ZM17.74 9.67L17.74 9.36L18.54 7.75L19.35 9.36L19.35 9.67L17.74 9.67ZM24.19 13.7L20.15 13.7C20.16 13.69 20.16 13.67 20.16 13.65L20.16 9.27C20.16 9.21 20.14 9.14 20.11 9.09L18.9 6.67C18.87 6.6 18.82 6.55 18.76 6.51C18.69 6.47 18.62 6.45 18.54 6.45C18.47 6.45 18.4 6.47 18.33 6.51C18.27 6.55 18.22 6.6 18.18 6.67L16.97 9.09C16.95 9.14 16.93 9.21 16.93 9.27L16.93 13.65C16.93 13.67 16.93 13.69 16.93 13.7L16.53 13.7L16.53 3.62C16.53 3.52 16.48 3.41 16.41 3.34C16.33 3.26 16.23 3.22 16.12 3.22L12.5 3.22C12.39 3.22 12.29 3.26 12.21 3.34C12.13 3.41 12.09 3.52 12.09 3.62L12.09 13.7L11.69 13.7C11.69 13.69 11.69 13.67 11.69 13.65L11.69 6.04C11.69 5.98 11.67 5.92 11.65 5.86L10.44 3.44C10.4 3.38 10.35 3.32 10.29 3.28C10.22 3.24 10.15 3.22 10.08 3.22C10 3.22 9.93 3.24 9.86 3.28C9.8 3.32 9.75 3.38 9.71 3.44L8.51 5.86C8.48 5.92 8.46 5.98 8.46 6.04L8.46 13.65C8.46 13.67 8.46 13.69 8.47 13.7L7.49 13.7L7.66 9.69C7.66 9.68 7.66 9.67 7.66 9.66L7.66 9.65C7.65 9.64 7.65 9.62 7.65 9.61L7.65 9.61L7.28 7.37C7.75 7.01 8.06 6.37 8.06 5.64C8.06 4.6 6.86 3.46 6.72 3.33C6.65 3.26 6.55 3.22 6.45 3.22C6.34 3.22 6.25 3.26 6.17 3.33C6.03 3.46 4.83 4.6 4.83 5.64C4.83 6.37 5.15 7.01 5.62 7.37L5.24 9.61L5.24 9.61C5.24 9.62 5.24 9.64 5.24 9.65L5.24 9.66C5.24 9.67 5.24 9.68 5.24 9.69L5.4 13.7L0.8 13.7L0.8 1.61C0.8 1.39 0.89 1.19 1.04 1.04C1.19 0.89 1.39 0.8 1.61 0.8L23.38 0.8C23.6 0.8 23.8 0.89 23.95 1.04C24.1 1.19 24.19 1.39 24.19 1.61L24.19 13.7Z" fill="#000000" fill-opacity="1.000000" fill-rule="nonzero"/>
	<path id="Vector" d="M4.43 14.91L2.01 14.91C1.9 14.91 1.8 14.96 1.73 15.03C1.65 15.11 1.61 15.21 1.61 15.32C1.61 15.42 1.65 15.53 1.73 15.6C1.8 15.68 1.9 15.72 2.01 15.72L4.43 15.72C4.54 15.72 4.64 15.68 4.72 15.6C4.79 15.53 4.83 15.42 4.83 15.32C4.83 15.21 4.79 15.11 4.72 15.03C4.64 14.96 4.54 14.91 4.43 14.91Z" fill="#000000" fill-opacity="1.000000" fill-rule="nonzero"/>
	<path id="Vector" d="M6.04 14.91L5.64 14.91C5.53 14.91 5.43 14.96 5.36 15.03C5.28 15.11 5.24 15.21 5.24 15.32C5.24 15.42 5.28 15.53 5.36 15.6C5.43 15.68 5.53 15.72 5.64 15.72L6.04 15.72C6.15 15.72 6.25 15.68 6.33 15.6C6.4 15.53 6.45 15.42 6.45 15.32C6.45 15.21 6.4 15.11 6.33 15.03C6.25 14.96 6.15 14.91 6.04 14.91Z" fill="#000000" fill-opacity="1.000000" fill-rule="nonzero"/>
	<path id="Vector" d="M10.08 7.66C9.97 7.66 9.87 7.7 9.79 7.77C9.71 7.85 9.67 7.95 9.67 8.06L9.67 12.5C9.67 12.6 9.71 12.7 9.79 12.78C9.87 12.86 9.97 12.9 10.08 12.9C10.18 12.9 10.29 12.86 10.36 12.78C10.44 12.7 10.48 12.6 10.48 12.5L10.48 8.06C10.48 7.95 10.44 7.85 10.36 7.77C10.29 7.7 10.18 7.66 10.08 7.66Z" fill="#000000" fill-opacity="1.000000" fill-rule="nonzero"/>
	<path id="Vector" d="M18.54 10.88C18.44 10.88 18.33 10.92 18.26 11C18.18 11.08 18.14 11.18 18.14 11.29L18.14 12.5C18.14 12.6 18.18 12.7 18.26 12.78C18.33 12.86 18.44 12.9 18.54 12.9C18.65 12.9 18.75 12.86 18.83 12.78C18.9 12.7 18.95 12.6 18.95 12.5L18.95 11.29C18.95 11.18 18.9 11.08 18.83 11C18.75 10.92 18.65 10.88 18.54 10.88Z" fill="#000000" fill-opacity="1.000000" fill-rule="nonzero"/>
	<path id="Vector" d="M2.01 2.41L5.24 2.41C5.34 2.41 5.45 2.37 5.52 2.3C5.6 2.22 5.64 2.12 5.64 2.01C5.64 1.9 5.6 1.8 5.52 1.73C5.45 1.65 5.34 1.61 5.24 1.61L2.01 1.61C1.9 1.61 1.8 1.65 1.73 1.73C1.65 1.8 1.61 1.9 1.61 2.01C1.61 2.12 1.65 2.22 1.73 2.3C1.8 2.37 1.9 2.41 2.01 2.41Z" fill="#000000" fill-opacity="1.000000" fill-rule="nonzero"/>
	<path id="Vector" d="M2.01 3.62L2.82 3.62C2.92 3.62 3.03 3.58 3.1 3.51C3.18 3.43 3.22 3.33 3.22 3.22C3.22 3.11 3.18 3.01 3.1 2.94C3.03 2.86 2.92 2.82 2.82 2.82L2.01 2.82C1.9 2.82 1.8 2.86 1.73 2.94C1.65 3.01 1.61 3.11 1.61 3.22C1.61 3.33 1.65 3.43 1.73 3.51C1.8 3.58 1.9 3.62 2.01 3.62Z" fill="#000000" fill-opacity="1.000000" fill-rule="nonzero"/>
	<path id="Vector" d="M21.37 12.9L22.98 12.9C23.09 12.9 23.19 12.86 23.26 12.78C23.34 12.7 23.38 12.6 23.38 12.5C23.38 12.39 23.34 12.29 23.26 12.21C23.19 12.13 23.09 12.09 22.98 12.09L21.37 12.09C21.26 12.09 21.16 12.13 21.08 12.21C21.01 12.29 20.96 12.39 20.96 12.5C20.96 12.6 21.01 12.7 21.08 12.78C21.16 12.86 21.26 12.9 21.37 12.9Z" fill="#000000" fill-opacity="1.000000" fill-rule="nonzero"/>
	<path id="Vector" d="M22.58 11.69L22.98 11.69C23.09 11.69 23.19 11.65 23.26 11.57C23.34 11.49 23.38 11.39 23.38 11.29C23.38 11.18 23.34 11.08 23.26 11C23.19 10.92 23.09 10.88 22.98 10.88L22.58 10.88C22.47 10.88 22.37 10.92 22.29 11C22.21 11.08 22.17 11.18 22.17 11.29C22.17 11.39 22.21 11.49 22.29 11.57C22.37 11.65 22.47 11.69 22.58 11.69Z" fill="#000000" fill-opacity="1.000000" fill-rule="nonzero"/>
</svg>
