<svg width="25.000000" height="23.452576" viewBox="0 0 25 23.4526" fill="none" xmlns="http://www.w3.org/2000/svg" xmlns:xlink="http://www.w3.org/1999/xlink">
	<desc>
			Created with Pixso.
	</desc>
	<defs/>
	<path id="Vector" d="M0 0L0 20.52L8.02 20.52L8.02 21.98L6.55 21.98L6.55 23.45L18.44 23.45L18.44 21.98L16.97 21.98L16.97 20.52L25 20.52L25 0L0 0ZM15.51 21.98L9.48 21.98L9.48 20.52L15.51 20.52L15.51 21.98L15.51 21.98ZM23.53 19.05L1.46 19.05L1.46 16.12L23.53 16.12L23.53 19.05L23.53 19.05ZM23.53 14.65L1.46 14.65L1.46 1.46L23.53 1.46L23.53 14.65L23.53 14.65Z" fill="#000000" fill-opacity="1.000000" fill-rule="nonzero"/>
	<path id="Vector" d="M9.95 5.41L8.92 4.37L5.23 8.06L8.92 11.74L9.95 10.7L7.31 8.06L9.95 5.41Z" fill="#000000" fill-opacity="1.000000" fill-rule="nonzero"/>
	<path id="Vector" d="M16.07 4.37L15.04 5.41L17.68 8.06L15.04 10.7L16.07 11.74L19.76 8.06L16.07 4.37Z" fill="#000000" fill-opacity="1.000000" fill-rule="nonzero"/>
	<path id="Vector" d="M10.93 12.19L12.63 3.64L14.06 3.92L12.36 12.47L10.93 12.19Z" fill="#000000" fill-opacity="1.000000" fill-rule="evenodd"/>
</svg>
