<svg width="46.000122" height="65.000000" viewBox="0 0 46.0001 65" fill="none" xmlns="http://www.w3.org/2000/svg" xmlns:xlink="http://www.w3.org/1999/xlink">
	<desc>
			Created with Pixso.
	</desc>
	<defs/>
	<path id="path16" d="M22.97 65L4.18 59.77L0 12.77L46 12.77L41.8 59.77L22.97 65Z" fill="#4353AD" fill-opacity="1.000000" fill-rule="nonzero"/>
	<path id="path20" d="M38.22 56.77L41.8 16.61L22.99 16.61L22.99 61L38.22 56.77Z" fill="#485FB5" fill-opacity="1.000000" fill-rule="nonzero"/>
	<path id="path24" d="M23 49.02L22.97 49.03L16.56 47.29L16.15 42.69L10.37 42.69L11.17 51.75L22.97 55.02L23 55.02L23 49.02ZM8.55 22.38L9.08 28.14L23 28.14L23 22.38L8.55 22.38ZM9.59 34.05L10.11 39.81L23 39.81L23 34.05L9.59 34.05Z" fill="#EDEDED" fill-opacity="1.000000" fill-rule="nonzero"/>
	<path id="path28" d="M27.56 0L34.54 0L34.54 2.53L30.48 2.53L30.48 3.04L34.54 3.04L34.54 8.88L27.56 8.88L27.56 6.22L31.62 6.22L31.62 5.71L27.56 5.71L27.56 0L27.56 0ZM19.19 0L26.17 0L26.17 2.53L22.11 2.53L22.11 3.04L26.17 3.04L26.17 8.88L19.19 8.88L19.19 6.22L23.25 6.22L23.25 5.71L19.19 5.71L19.19 0L19.19 0ZM10.82 0L17.8 0L17.8 2.91L13.74 2.91L13.74 5.84L17.8 5.84L17.8 8.76L10.82 8.76L10.82 0Z" fill="#100F0D" fill-opacity="1.000000" fill-rule="nonzero"/>
	<path id="path32" d="M36.36 34.05L37.4 22.38L22.98 22.38L22.98 28.14L31.09 28.14L30.57 34.05L22.98 34.05L22.98 39.81L30.07 39.81L29.4 47.29L22.98 49.02L22.98 55.02L34.78 51.75L34.87 50.77L36.22 35.59L36.36 34.05Z" fill="#FFFFFF" fill-opacity="1.000000" fill-rule="nonzero"/>
</svg>
