<svg width="45.774643" height="65.000000" viewBox="0 0 45.7746 65" fill="none" xmlns="http://www.w3.org/2000/svg" xmlns:xlink="http://www.w3.org/1999/xlink">
	<desc>
			Created with Pixso.
	</desc>
	<defs/>
	<path id="path14" d="M4.16 59.77L0 12.77L45.77 12.77L41.6 59.77L22.85 65L4.16 59.77Z" fill="#E53D20" fill-opacity="1.000000" fill-rule="nonzero"/>
	<path id="path16" d="M22.88 61L38.03 56.77L41.59 16.61L22.88 16.61L22.88 61Z" fill="#F15123" fill-opacity="1.000000" fill-rule="nonzero"/>
	<path id="path18" d="M22.88 34.05L15.3 34.05L14.78 28.14L22.88 28.14L22.88 22.38L22.86 22.38L8.51 22.38L8.65 23.92L10.06 39.81L22.88 39.81L22.88 34.05Z" fill="#EDEDED" fill-opacity="1.000000" fill-rule="nonzero"/>
	<path id="path20" d="M22.88 49.02L22.86 49.03L16.48 47.29L16.07 42.69L12.97 42.69L10.31 42.69L11.12 51.75L22.86 55.02L22.88 55.02L22.88 49.02Z" fill="#EDEDED" fill-opacity="1.000000" fill-rule="nonzero"/>
	<path id="path22" d="M4.25 0L7.17 0L7.17 2.89L9.83 2.89L9.83 0L12.74 0L12.74 8.76L9.83 8.76L9.83 5.83L7.17 5.83L7.17 8.76L4.25 8.76L4.25 0L4.25 0Z" fill="#100F0D" fill-opacity="1.000000" fill-rule="nonzero"/>
	<path id="path24" d="M16.57 2.9L14.01 2.9L14.01 0L22.05 0L22.05 2.9L19.48 2.9L19.48 8.76L16.57 8.76L16.57 2.9L16.57 2.9Z" fill="#100F0D" fill-opacity="1.000000" fill-rule="nonzero"/>
	<path id="path26" d="M23.33 0L26.36 0L28.23 3.07L30.1 0L33.13 0L33.13 8.76L30.23 8.76L30.23 4.42L28.23 7.53L28.18 7.53L26.17 4.42L26.17 8.76L23.33 8.76L23.33 0Z" fill="#100F0D" fill-opacity="1.000000" fill-rule="nonzero"/>
	<path id="path28" d="M34.58 0L37.5 0L37.5 5.86L41.59 5.86L41.59 8.76L34.58 8.76L34.58 0Z" fill="#100F0D" fill-opacity="1.000000" fill-rule="nonzero"/>
	<path id="path30" d="M22.86 34.05L22.86 39.81L29.92 39.81L29.25 47.29L22.86 49.02L22.86 55.02L34.61 51.75L34.7 50.77L36.04 35.59L36.18 34.05L34.64 34.05L22.86 34.05Z" fill="#FFFFFF" fill-opacity="1.000000" fill-rule="nonzero"/>
	<path id="path32" d="M22.86 22.38L22.86 28.14L36.69 28.14L36.7 28.14L36.82 26.85L37.08 23.92L37.22 22.38L22.86 22.38Z" fill="#FFFFFF" fill-opacity="1.000000" fill-rule="nonzero"/>
</svg>
