<svg width="161.138916" height="36.619629" viewBox="0 0 161.139 36.6196" fill="none" xmlns="http://www.w3.org/2000/svg" xmlns:xlink="http://www.w3.org/1999/xlink">
	<desc>
			Created with Pixso.
	</desc>
	<defs/>
	<path id="Vector" d="M154.37 2.7L161.13 2.74C161.13 2.74 148.56 19.78 147.53 21.17C147.19 21.62 146.69 22.11 146.43 22.71C145.78 24.22 145.11 27.54 145.11 27.54L138.92 27.57C138.92 27.57 139.89 24.11 139.85 22.27C139.81 20.66 138.99 19.06 138.53 17.44C138.06 15.81 137.43 12.61 137.43 12.61L143.8 12.61L144.67 16.13L154.37 2.7Z" fill="#1A1918" fill-opacity="1.000000" fill-rule="evenodd"/>
	<path id="Vector" d="M141.56 6.3C142.81 7.05 143.57 11.2 143.57 11.2C143.57 11.2 137.04 11.3 133.48 11.3L130.41 11.3L126.68 27.54L120.97 27.54C120.97 27.54 124.52 9.89 125.36 6.69C125.64 5.65 127.22 5.83 129.91 5.83L134.19 5.83C136.96 5.83 140.2 5.48 141.56 6.3Z" fill="#1A1918" fill-opacity="1.000000" fill-rule="evenodd"/>
	<path id="Vector" d="M114.99 14.21C114.99 14.21 115.17 13.16 114.39 11.96C113.72 10.93 113.11 10.69 111.35 10.63C106.39 10.48 106.49 14.15 106.49 14.15L114.99 14.21ZM120.37 10C121.1 12.62 119.71 18.78 119.71 18.78C119.71 18.78 112.48 18.66 108.52 18.78C107.29 18.81 105.81 18.64 105.45 19.22C104.93 20.02 105.64 21.25 106.23 21.78C106.92 22.38 108.26 22.45 108.74 22.51C111.95 22.92 118.68 22.61 118.68 22.61L117.52 27.77C117.52 27.77 108.01 28.25 103.25 27.12C102.31 26.89 101.43 26.44 100.84 25.8C100.68 25.62 100.54 25.38 100.38 25.18C100.26 25.01 99.9 24.47 99.74 24.04C98.65 21.15 99.87 15.6 101.06 12.63C101.2 12.29 101.37 11.85 101.55 11.48C101.78 11.02 101.97 10.49 102.16 10.22C102.28 10.03 102.43 9.9 102.56 9.72C102.7 9.51 102.88 9.31 103.03 9.12C103.47 8.61 103.97 8.25 104.57 7.8C106.55 6.32 110.14 5.17 114.45 5.61C116.07 5.78 118.52 6.36 119.71 8.02C120.03 8.47 120.19 9.35 120.37 10Z" fill="#1A1918" fill-opacity="1.000000" fill-rule="evenodd"/>
	<path id="Vector" d="M94.2 5.81L99.73 5.78C99.73 5.78 96.65 20.4 95.08 27.54L88.71 27.54C84.27 27.54 80.3 28.09 78.62 24.9C76.98 21.81 78.54 16.73 79.28 13.27C79.79 10.83 80.89 5.83 80.89 5.83L86.62 5.78C86.62 5.78 85 13.56 84.32 17.44C84.08 18.83 83.59 20.14 84.11 21.17C84.6 22.15 85.29 22.22 87.4 22.27C88.06 22.29 90.25 22.27 90.25 22.27L94.2 5.81Z" fill="#1A1918" fill-opacity="1.000000" fill-rule="evenodd"/>
	<path id="Vector" d="M68.3 16.34C68.88 14.29 69.73 12.05 69.62 10.2C69.5 8.22 67.84 6.41 66.77 6.03C63.54 4.89 60.51 6.48 59.31 7.79C57.75 9.47 57.22 11.44 56.67 14.15C56.26 16.16 55.93 18.29 56.67 19.86C57.99 22.63 62.11 22.02 66.55 22.05C67.21 20.29 67.75 18.3 68.3 16.34ZM75.99 8.22C76.62 12.82 74.19 17.89 72.52 22.3C74.23 22.46 75.72 22.28 75.83 22.41C75.94 22.57 74.68 27.67 74.25 27.68C72.9 27.72 68.42 27.76 66.55 27.76C60.45 27.76 54.75 28.15 51.85 25.12C50.66 23.89 49.85 21.78 49.65 20.3C49.32 17.82 49.73 15.09 50.31 12.83C50.83 10.8 51.5 8.88 52.5 7.13C55.06 2.66 59.52 -0.66 66.99 0.11C68.44 0.25 70.52 0.89 71.82 1.64C71.91 1.69 72.22 1.94 72.29 1.99C74.05 3.11 75.65 5.77 75.99 8.22Z" fill="#1A1918" fill-opacity="1.000000" fill-rule="evenodd"/>
	<path id="Vector" d="M49.02 5.84C48.65 7.52 48.28 9.42 47.89 11.08L41.75 11.08C42.23 9.24 42.59 7.41 43.07 5.81C45.03 5.81 46.86 5.84 49.02 5.84Z" fill="#1A1918" fill-opacity="1.000000" fill-rule="evenodd"/>
	<path id="Vector" d="M41.53 12.61L47.46 12.61C46.68 16.9 45.15 23.82 43.94 28.63C43.19 31.65 42.69 33.85 40.65 35.44C40.47 35.58 40.37 35.51 40.21 35.66C39.84 36.02 38.1 36.43 37.14 36.54C35.58 36.7 33.81 36.56 31.89 36.52C32.39 34.68 32.96 32.48 33.41 30.83C38.09 31.4 38.21 26.97 39.12 22.71C39.64 20.25 41.23 13.6 41.53 12.61Z" fill="#1A1918" fill-opacity="1.000000" fill-rule="evenodd"/>
	<path id="Vector" d="M27.7 23.81L27.58 24.14C25.41 28.35 21.58 30.93 16.11 31.05C13.55 31.1 11.12 30.45 9.53 29.73C6.09 28.19 3.2 25.33 1.63 22.27C-0.64 17.89 -1.04 11.79 3.66 7.24C3.73 7.24 3.09 8.23 3.16 8.23L3.03 8.65C-0.36 19.26 10.09 28.36 20.24 27.32C22.68 27.07 25.8 25.73 27.7 23.81Z" fill="#21609B" fill-opacity="1.000000" fill-rule="evenodd"/>
	<path id="Vector" d="M21.56 19.42C24.11 19.43 26.78 18.24 28.36 16.56C26.98 20.07 22.98 22.33 17.61 21.61C13.12 21.01 8.83 16.49 8.39 11.96C8.07 8.66 9.22 6.69 11.11 4.3C10.46 5.55 10.21 6.51 10.15 7.13C9.43 14.26 15.85 19.38 21.56 19.42Z" fill="#21609B" fill-opacity="1.000000" fill-rule="evenodd"/>
	<path id="Vector" d="M28.11 10.56C27.71 11.47 25.42 13.19 24.41 13.4C20.41 14.25 17.85 12.36 16.51 10.2C16.31 9.88 15.94 9 15.88 8.77C15.36 7.01 15.6 4.33 17.15 2.95C16.68 4.26 16.61 5.79 16.86 6.79C17.01 7.39 17.46 8.44 17.92 9.1C18.74 10.3 19.27 10.59 20.33 11.23C20.81 11.52 21.32 11.75 21.54 11.81C22.55 12.11 24.68 12.89 28.11 10.56Z" fill="#21609B" fill-opacity="1.000000" fill-rule="evenodd"/>
</svg>
