<svg width="65.000000" height="65.000000" viewBox="0 0 65 65" fill="none" xmlns="http://www.w3.org/2000/svg" xmlns:xlink="http://www.w3.org/1999/xlink">
	<desc>
			Created with Pixso.
	</desc>
	<defs/>
	<path id="Vector" d="M0 0L65 0L65 65L0 65L0 0Z" fill="#F7DF1E" fill-opacity="1.000000" fill-rule="nonzero"/>
	<path id="Vector" d="M17.09 54.31L22.06 51.3C23.02 53.01 23.89 54.44 25.99 54.44C27.99 54.44 29.26 53.66 29.26 50.61L29.26 29.84L35.37 29.84L35.37 50.69C35.37 57.02 31.66 59.9 26.25 59.9C21.36 59.9 18.53 57.37 17.09 54.31L17.09 54.31Z" fill="#000000" fill-opacity="1.000000" fill-rule="nonzero"/>
	<path id="Vector" d="M38.69 53.66L43.66 50.78C44.97 52.92 46.67 54.49 49.68 54.49C52.21 54.49 53.83 53.22 53.83 51.48C53.83 49.38 52.17 48.64 49.37 47.42L47.85 46.77C43.44 44.89 40.52 42.53 40.52 37.56C40.52 32.98 44.01 29.49 49.46 29.49C53.35 29.49 56.14 30.84 58.15 34.37L53.39 37.43C52.34 35.55 51.21 34.81 49.46 34.81C47.67 34.81 46.54 35.94 46.54 37.43C46.54 39.26 47.67 40 50.29 41.14L51.82 41.79C57.01 44.02 59.93 46.29 59.93 51.39C59.93 56.89 55.61 59.9 49.81 59.9C44.14 59.9 40.47 57.19 38.69 53.66L38.69 53.66Z" fill="#000000" fill-opacity="1.000000" fill-rule="nonzero"/>
</svg>
