<svg width="159.816162" height="44.911621" viewBox="0 0 159.816 44.9116" fill="none" xmlns="http://www.w3.org/2000/svg" xmlns:xlink="http://www.w3.org/1999/xlink">
	<desc>
			Created with Pixso.
	</desc>
	<defs/>
	<path id="Vector" d="M148.97 18.57C148.82 18.6 148.68 18.91 148.68 19.08C148.65 20.22 148.62 23.23 148.62 25.28C148.62 25.34 148.71 25.45 148.8 25.45C149.23 25.48 150.27 25.51 151.16 25.51C152.4 25.51 153.12 25.34 153.52 25.17C154.56 24.66 155.05 23.55 155.05 22.32C155.05 19.56 153.09 18.51 150.18 18.51C149.98 18.48 149.4 18.48 148.97 18.57ZM156.41 31.28C156.41 28.47 154.3 26.9 150.5 26.9C150.32 26.9 149.11 26.87 148.82 26.93C148.74 26.96 148.62 27.02 148.62 27.1C148.62 29.12 148.59 32.33 148.68 33.59C148.74 34.13 149.14 34.89 149.63 35.12C150.15 35.41 151.33 35.46 152.14 35.46C154.42 35.46 156.41 34.21 156.41 31.28ZM143.09 17C143.37 17 144.24 17.09 146.46 17.09C148.56 17.09 150.24 17.03 152.28 17.03C154.79 17.03 158.25 17.91 158.25 21.61C158.25 23.43 156.96 24.88 155.25 25.59C155.17 25.62 155.17 25.68 155.25 25.71C157.68 26.3 159.81 27.78 159.81 30.57C159.81 33.3 158.08 35.04 155.57 36.12C154.04 36.77 152.14 37 150.21 37C148.74 37 144.79 36.83 142.6 36.89C142.36 36.8 142.8 35.78 143 35.61C143.52 35.58 143.92 35.55 144.47 35.38C145.25 35.18 145.33 34.95 145.45 33.79C145.51 32.79 145.51 29.26 145.51 26.76C145.51 23.32 145.54 20.99 145.51 19.85C145.48 18.97 145.16 18.68 144.53 18.51C144.04 18.43 143.23 18.31 142.57 18.23C142.42 18.08 142.91 17.12 143.09 17ZM126.45 34.7C127.14 35.24 128.49 35.46 129.7 35.46C131.26 35.46 132.82 35.18 134.32 33.84C135.85 32.48 136.91 30.37 136.91 27.02C136.91 23.8 135.67 21.18 133.14 19.65C131.69 18.77 129.85 18.4 127.71 18.4C127.08 18.4 126.47 18.43 126.1 18.6C126.01 18.65 125.81 18.91 125.81 19.05C125.75 19.62 125.75 24 125.75 26.56C125.75 29.21 125.75 32.9 125.81 33.33C125.81 33.76 126.01 34.41 126.45 34.7ZM119.9 17C120.45 17 122.55 17.09 123.56 17.09C125.38 17.09 126.68 17 130.11 17C132.99 17 135.41 17.77 137.14 19.22C139.25 21.01 140.35 23.49 140.35 26.5C140.35 30.8 138.36 33.27 136.37 34.7C134.38 36.15 131.78 37 128.09 37C126.13 37 122.75 36.94 119.96 36.91L119.93 36.91C119.78 36.66 120.16 35.66 120.39 35.63C121.14 35.55 121.34 35.52 121.72 35.38C122.32 35.15 122.44 34.84 122.52 33.79C122.61 31.82 122.58 29.46 122.58 26.79C122.58 24.88 122.61 21.16 122.55 19.96C122.47 18.97 122.03 18.71 121.17 18.54C120.74 18.45 120.16 18.34 119.35 18.26C119.24 18.06 119.76 17.17 119.9 17Z" fill="#8E714E" fill-opacity="1.000000" fill-rule="evenodd"/>
	<path id="Vector" d="M85.01 35.8C84.28 35.72 83.77 35.61 83.13 35.32C83.04 35.26 82.9 34.98 82.9 34.87C82.84 33.87 82.84 31.03 82.84 29.12C82.84 27.58 82.58 26.25 81.92 25.31C81.14 24.23 80.02 23.6 78.57 23.6C77.31 23.6 75.6 24.46 74.19 25.65C74.16 25.68 73.93 25.88 73.96 25.57C73.96 25.25 74.02 24.63 74.05 24.2C74.08 23.8 73.85 23.6 73.85 23.6C72.92 24.06 70.33 24.66 69.37 24.74C68.68 24.88 68.51 25.54 69.23 25.76L69.26 25.76C70.04 25.99 70.56 26.25 70.96 26.5C71.25 26.73 71.22 27.04 71.22 27.3C71.25 29.43 71.25 32.7 71.16 34.5C71.13 35.21 70.93 35.46 70.41 35.58L70.47 35.55C70.07 35.63 69.75 35.72 69.26 35.78C69.09 35.95 69.09 36.86 69.26 37.06C69.58 37.06 71.25 36.97 72.63 36.97C74.54 36.97 75.52 37.06 76.01 37.06C76.21 36.83 76.27 35.98 76.15 35.78C75.6 35.75 75.2 35.69 74.83 35.58C74.31 35.46 74.16 35.21 74.13 34.61C74.08 33.1 74.08 29.92 74.08 27.76C74.08 27.16 74.25 26.87 74.42 26.7C75.08 26.13 76.15 25.74 77.1 25.74C78.03 25.74 78.63 26.02 79.09 26.39C79.73 26.9 79.93 27.64 80.02 28.18C80.16 29.41 80.1 31.82 80.1 33.93C80.1 35.07 80.02 35.35 79.58 35.49C79.38 35.58 78.86 35.69 78.26 35.75C78.06 35.95 78.11 36.83 78.26 37.03C79.09 37.03 80.07 36.94 81.52 36.94C83.3 36.94 84.46 37.03 84.92 37.03C85.06 36.86 85.12 36.03 85.01 35.8L85.01 35.8ZM92.99 24.94C91.47 24.94 90.51 26.11 90.51 27.93C90.51 29.77 91.35 31.91 93.71 31.91C94.12 31.91 94.87 31.74 95.21 31.34C95.76 30.83 96.14 29.8 96.14 28.72C96.14 26.36 94.95 24.94 92.99 24.94ZM92.79 37.51C92.21 37.51 91.81 37.68 91.55 37.82C90.34 38.59 89.79 39.33 89.79 40.21C89.79 41.04 90.11 41.69 90.8 42.26C91.64 42.97 92.79 43.31 94.26 43.31C97.2 43.31 98.5 41.75 98.5 40.21C98.5 39.13 97.95 38.42 96.83 38.02C96.02 37.68 94.55 37.51 92.79 37.51ZM92.99 44.91C91.23 44.91 89.97 44.54 88.87 43.71C87.8 42.92 87.34 41.72 87.34 40.9C87.34 40.67 87.4 40.04 87.92 39.47C88.24 39.13 88.93 38.48 90.57 37.37C90.63 37.34 90.66 37.31 90.66 37.26C90.66 37.2 90.6 37.14 90.54 37.11C89.19 36.6 88.78 35.78 88.67 35.32L88.67 35.26C88.64 35.09 88.58 34.92 88.84 34.75C89.04 34.61 89.33 34.44 89.65 34.24C90.14 33.96 90.66 33.64 90.97 33.39C91.03 33.33 91.03 33.27 91.03 33.22C91.03 33.16 90.97 33.1 90.92 33.07C88.9 32.42 87.89 30.94 87.89 28.72C87.89 27.27 88.55 25.96 89.73 25.14C90.54 24.51 92.56 23.75 93.89 23.75L93.97 23.75C95.33 23.77 96.08 24.06 97.15 24.43C97.72 24.63 98.27 24.71 99.02 24.71C100.15 24.71 100.64 24.37 101.04 23.97C101.07 24.03 101.13 24.17 101.16 24.54C101.18 24.91 101.07 25.45 100.78 25.85C100.55 26.16 100.03 26.39 99.51 26.39L99.37 26.39C98.85 26.33 98.62 26.28 98.62 26.28L98.5 26.33C98.47 26.39 98.5 26.45 98.53 26.53L98.56 26.59C98.62 26.85 98.73 27.61 98.73 27.81C98.73 30.14 97.78 31.17 96.77 31.94C95.79 32.65 94.67 33.1 93.4 33.22C93.37 33.22 93.25 33.22 92.99 33.25C92.85 33.25 92.65 33.27 92.62 33.27L92.59 33.27C92.36 33.33 91.78 33.61 91.78 34.1C91.78 34.52 92.04 35.04 93.28 35.12C93.54 35.15 93.8 35.15 94.09 35.18C95.73 35.29 97.78 35.44 98.73 35.75C100.06 36.23 100.9 37.4 100.9 38.79C100.9 40.9 99.37 42.86 96.83 44.08C95.59 44.62 94.35 44.91 92.99 44.91ZM109.43 25.08C108.83 25.08 108.28 25.22 107.87 25.51C106.75 26.19 106.17 27.56 106.17 29.55C106.17 33.27 108.08 35.89 110.79 35.89C111.59 35.89 112.23 35.66 112.78 35.21C113.61 34.52 114.05 33.16 114.05 31.25C114.05 27.56 112.17 25.08 109.43 25.08ZM109.95 37.26C105.05 37.26 103.29 33.7 103.29 30.37C103.29 28.04 104.24 26.25 106.14 24.97C107.5 24.14 109.11 23.69 110.56 23.69C114.31 23.69 116.93 26.33 116.93 30.14C116.93 32.73 115.89 34.78 113.9 36.03C112.95 36.66 111.31 37.26 109.95 37.26L109.95 37.26ZM58.56 25.08C57.96 25.08 57.41 25.22 57 25.51C55.88 26.19 55.3 27.56 55.3 29.55C55.3 33.27 57.21 35.89 59.92 35.89C60.72 35.89 61.36 35.66 61.91 35.21C62.74 34.52 63.17 33.16 63.17 31.25C63.17 27.56 61.33 25.08 58.56 25.08ZM59.08 37.26C54.18 37.26 52.42 33.7 52.42 30.37C52.42 28.04 53.37 26.25 55.27 24.97C56.63 24.14 58.24 23.69 59.69 23.69C63.43 23.69 66.06 26.33 66.06 30.14C66.06 32.73 65.02 34.78 63.03 36.03C62.11 36.66 60.46 37.26 59.08 37.26ZM26.12 36.97C26.06 36.89 26 36.63 26.03 36.32C26.03 36.09 26.09 35.95 26.12 35.89C26.72 35.8 27.04 35.72 27.39 35.63C27.96 35.49 28.19 35.18 28.22 34.47C28.31 32.76 28.31 29.52 28.28 27.27L28.28 27.22C28.28 26.96 28.28 26.65 27.96 26.42C27.5 26.13 26.95 25.88 26.23 25.68C25.97 25.59 25.8 25.45 25.83 25.28C25.83 25.11 26 24.91 26.38 24.85C27.33 24.77 29.81 24.17 30.79 23.75C30.85 23.8 30.93 23.97 30.93 24.2L30.91 24.51C30.88 24.83 30.85 25.2 30.85 25.57C30.85 25.68 30.96 25.76 31.08 25.76C31.14 25.76 31.19 25.74 31.25 25.71C33.1 24.29 34.77 23.77 35.63 23.77C37.05 23.77 38.14 24.43 38.98 25.79C39.04 25.88 39.09 25.91 39.18 25.91C39.24 25.91 39.33 25.88 39.35 25.82C41.06 24.54 42.76 23.77 43.88 23.77C46.56 23.77 48.15 25.74 48.15 29.06C48.15 30 48.15 31.23 48.12 32.33C48.12 33.33 48.09 34.24 48.09 34.89C48.09 35.04 48.29 35.49 48.61 35.58C49.02 35.78 49.56 35.86 50.28 35.98L50.31 35.98C50.37 36.17 50.26 36.91 50.14 37.06C49.97 37.06 49.71 37.06 49.42 37.03C48.87 37 48.09 36.97 47.23 36.97C45.44 36.97 44.52 37 43.62 37.06C43.57 36.83 43.54 36.15 43.62 35.98C44.14 35.89 44.4 35.8 44.72 35.72C45.3 35.55 45.44 35.29 45.47 34.55C45.47 34.01 45.58 29.41 45.41 28.3C45.24 27.16 44.37 25.82 42.47 25.82C41.75 25.82 40.62 26.11 39.53 26.93C39.47 26.99 39.41 27.13 39.41 27.22L39.41 27.24C39.53 27.84 39.53 28.52 39.53 29.58L39.53 31.42C39.53 32.7 39.5 33.9 39.53 34.81C39.53 35.44 39.9 35.58 40.22 35.69C40.39 35.72 40.51 35.75 40.65 35.78C40.91 35.83 41.17 35.89 41.58 35.98C41.63 36.09 41.63 36.46 41.55 36.77C41.52 36.94 41.46 37.03 41.43 37.06C40.45 37.03 39.44 37 37.97 37C37.54 37 36.79 37.03 36.15 37.03C35.63 37.03 35.14 37.06 34.86 37.06C34.83 37 34.77 36.8 34.77 36.49C34.77 36.23 34.83 36.03 34.88 35.98C35.03 35.95 35.14 35.92 35.29 35.92C35.63 35.86 35.92 35.8 36.21 35.75C36.7 35.61 36.87 35.35 36.9 34.72C36.99 33.3 37.08 29.23 36.87 28.21C36.53 26.56 35.58 25.74 34.05 25.74C33.15 25.74 32.03 26.16 31.11 26.85C30.96 26.96 30.85 27.24 30.85 27.5L30.85 29.18C30.85 31.23 30.85 33.79 30.88 34.89C30.91 35.24 31.02 35.63 31.68 35.78C31.83 35.8 32.06 35.86 32.35 35.89L32.87 35.98C32.92 36.15 32.9 36.83 32.78 37.06C32.49 37.06 32.15 37.03 31.74 37.03C31.14 37 30.36 36.97 29.49 36.97C28.48 36.97 27.76 37 27.18 37.03C26.78 36.97 26.46 36.97 26.12 36.97Z" fill="#442D22" fill-opacity="1.000000" fill-rule="evenodd"/>
	<path id="Vector" d="M10.95 43.8L9.77 43.4C9.77 43.4 9.91 37.45 7.75 37.03C6.31 35.38 7.98 -32.94 13.17 36.8C13.17 36.8 11.38 37.68 11.06 39.19C10.72 40.67 10.95 43.8 10.95 43.8Z" fill="#FFFFFF" fill-opacity="1.000000" fill-rule="evenodd"/>
	<path id="Vector" d="M10.95 43.8L9.77 43.4C9.77 43.4 9.91 37.45 7.75 37.03C6.31 35.38 7.98 -32.94 13.17 36.8C13.17 36.8 11.38 37.68 11.06 39.19C10.72 40.67 10.95 43.8 10.95 43.8Z" fill="#A6A385" fill-opacity="1.000000" fill-rule="evenodd"/>
	<path id="Vector" d="M11.58 38.05C11.58 38.05 21.94 31.34 19.51 17.37C17.18 7.22 11.67 3.89 11.06 2.61C10.4 1.7 9.77 0.11 9.77 0.11L10.2 28.35C10.2 28.38 9.31 37 11.58 38.05Z" fill="#FFFFFF" fill-opacity="1.000000" fill-rule="evenodd"/>
	<path id="Vector" d="M11.58 38.05C11.58 38.05 21.94 31.34 19.51 17.37C17.18 7.22 11.67 3.89 11.06 2.61C10.4 1.7 9.77 0.11 9.77 0.11L10.2 28.35C10.2 28.38 9.31 37 11.58 38.05Z" fill="#499D4A" fill-opacity="1.000000" fill-rule="evenodd"/>
	<path id="Vector" d="M9.16 38.42C9.16 38.42 -0.56 31.88 0.02 20.36C0.57 8.84 7.43 3.18 8.76 2.16C9.62 1.25 9.65 0.91 9.71 0C10.31 1.28 10.2 19.14 10.29 21.24C10.55 29.35 9.82 36.89 9.16 38.42Z" fill="#FFFFFF" fill-opacity="1.000000" fill-rule="evenodd"/>
	<path id="Vector" d="M9.16 38.42C9.16 38.42 -0.56 31.88 0.02 20.36C0.57 8.84 7.43 3.18 8.76 2.16C9.62 1.25 9.65 0.91 9.71 0C10.31 1.28 10.2 19.14 10.29 21.24C10.55 29.35 9.82 36.89 9.16 38.42Z" fill="#58AA50" fill-opacity="1.000000" fill-rule="evenodd"/>
</svg>
