<svg width="103.859131" height="64.812500" viewBox="0 0 103.859 64.8125" fill="none" xmlns="http://www.w3.org/2000/svg" xmlns:xlink="http://www.w3.org/1999/xlink">
	<desc>
			Created with Pixso.
	</desc>
	<defs>
		<linearGradient x1="42.375080" y1="19.310825" x2="33.438850" y2="37.889057" id="paint_linear_15_1933_0" gradientUnits="userSpaceOnUse">
			<stop stop-color="#41873F"/>
			<stop offset="0.328800" stop-color="#418B3D"/>
			<stop offset="0.635200" stop-color="#419637"/>
			<stop offset="0.931900" stop-color="#3FA92D"/>
			<stop offset="1.000000" stop-color="#3FAE2A"/>
		</linearGradient>
		<linearGradient x1="36.847832" y1="29.033001" x2="61.922218" y2="10.152714" id="paint_linear_15_1937_0" gradientUnits="userSpaceOnUse">
			<stop offset="0.137600" stop-color="#41873F"/>
			<stop offset="0.403200" stop-color="#54A044"/>
			<stop offset="0.713600" stop-color="#66B848"/>
			<stop offset="0.908100" stop-color="#6CC04A"/>
		</linearGradient>
		<linearGradient x1="28.990770" y1="12.857296" x2="47.286930" y2="12.857296" id="paint_linear_15_1942_0" gradientUnits="userSpaceOnUse">
			<stop offset="0.091916" stop-color="#6CC04A"/>
			<stop offset="0.286400" stop-color="#66B848"/>
			<stop offset="0.596800" stop-color="#54A044"/>
			<stop offset="0.862400" stop-color="#41873F"/>
		</linearGradient>
		<linearGradient x1="26.918432" y1="27.669353" x2="49.788338" y2="27.669353" id="paint_linear_15_1943_0" gradientUnits="userSpaceOnUse">
			<stop offset="0.091916" stop-color="#6CC04A"/>
			<stop offset="0.286400" stop-color="#66B848"/>
			<stop offset="0.596800" stop-color="#54A044"/>
			<stop offset="0.862400" stop-color="#41873F"/>
		</linearGradient>
		<linearGradient x1="42.881298" y1="34.296967" x2="49.742451" y2="34.296967" id="paint_linear_15_1944_0" gradientUnits="userSpaceOnUse">
			<stop offset="0.091916" stop-color="#6CC04A"/>
			<stop offset="0.286400" stop-color="#66B848"/>
			<stop offset="0.596800" stop-color="#54A044"/>
			<stop offset="0.862400" stop-color="#41873F"/>
		</linearGradient>
		<linearGradient x1="26.918451" y1="37.330223" x2="49.788361" y2="37.330223" id="paint_linear_15_1945_0" gradientUnits="userSpaceOnUse">
			<stop offset="0.091916" stop-color="#6CC04A"/>
			<stop offset="0.286400" stop-color="#66B848"/>
			<stop offset="0.596800" stop-color="#54A044"/>
			<stop offset="0.862400" stop-color="#41873F"/>
		</linearGradient>
		<linearGradient x1="53.120228" y1="18.759886" x2="39.015533" y2="48.083260" id="paint_linear_15_1946_0" gradientUnits="userSpaceOnUse">
			<stop stop-color="#41873F"/>
			<stop offset="0.328800" stop-color="#418B3D"/>
			<stop offset="0.635200" stop-color="#419637"/>
			<stop offset="0.931900" stop-color="#3FA92D"/>
			<stop offset="1.000000" stop-color="#3FAE2A"/>
		</linearGradient>
	</defs>
	<path id="Vector" d="M51.36 64.81C51.01 64.81 50.68 64.71 50.38 64.54L47.25 62.65C46.78 62.39 47.02 62.3 47.16 62.25C47.79 62.03 47.91 61.98 48.57 61.6C48.64 61.55 48.73 61.58 48.8 61.63L51.2 63.08C51.29 63.13 51.41 63.13 51.48 63.08L60.85 57.56C60.94 57.51 60.99 57.41 60.99 57.3L60.99 46.27C60.99 46.15 60.94 46.05 60.85 46L51.48 40.5C51.38 40.45 51.27 40.45 51.2 40.5L41.83 46C41.74 46.05 41.69 46.17 41.69 46.27L41.69 57.3C41.69 57.39 41.74 57.51 41.83 57.56L44.39 59.07C45.77 59.78 46.64 58.95 46.64 58.11L46.64 47.22C46.64 47.08 46.76 46.94 46.92 46.94L48.12 46.94C48.26 46.94 48.4 47.06 48.4 47.22L48.4 58.11C48.4 60 47.39 61.1 45.63 61.1C45.09 61.1 44.67 61.1 43.47 60.5L41.01 59.07C40.4 58.71 40.02 58.04 40.02 57.32L40.02 46.29C40.02 45.57 40.4 44.9 41.01 44.54L50.38 39.02C50.96 38.68 51.76 38.68 52.35 39.02L61.71 44.54C62.32 44.9 62.7 45.57 62.7 46.29L62.7 57.32C62.7 58.04 62.32 58.71 61.71 59.07L52.35 64.59C52.04 64.74 51.69 64.81 51.36 64.81ZM54.25 57.22C50.14 57.22 49.3 55.31 49.3 53.68C49.3 53.54 49.41 53.4 49.58 53.4L50.8 53.4C50.94 53.4 51.06 53.49 51.06 53.63C51.24 54.9 51.78 55.52 54.27 55.52C56.24 55.52 57.09 55.07 57.09 53.99C57.09 53.37 56.85 52.92 53.78 52.61C51.22 52.34 49.62 51.77 49.62 49.69C49.62 47.75 51.22 46.6 53.9 46.6C56.9 46.6 58.38 47.65 58.57 49.95C58.57 50.02 58.54 50.09 58.5 50.17C58.45 50.21 58.38 50.26 58.31 50.26L57.09 50.26C56.97 50.26 56.85 50.17 56.83 50.05C56.55 48.73 55.82 48.3 53.9 48.3C51.74 48.3 51.48 49.06 51.48 49.64C51.48 50.33 51.78 50.55 54.69 50.93C57.58 51.31 58.94 51.86 58.94 53.92C58.92 56.03 57.23 57.22 54.25 57.22Z" fill="#539E43" fill-opacity="1.000000" fill-rule="nonzero"/>
	<path id="Vector" d="M22.3 21.67C22.3 21.24 22.06 20.83 21.69 20.62L11.73 14.78C11.57 14.68 11.38 14.64 11.19 14.61L11.1 14.61C10.91 14.61 10.72 14.68 10.56 14.78L0.61 20.62C0.23 20.83 0 21.24 0 21.67L0.02 37.37C0.02 37.58 0.14 37.8 0.32 37.89C0.51 38.01 0.75 38.01 0.91 37.89L6.83 34.45C7.2 34.23 7.44 33.82 7.44 33.39L7.44 26.05C7.44 25.62 7.67 25.21 8.05 25L10.56 23.51C10.75 23.39 10.96 23.35 11.17 23.35C11.38 23.35 11.59 23.39 11.76 23.51L14.27 25C14.64 25.21 14.88 25.62 14.88 26.05L14.88 33.39C14.88 33.82 15.11 34.23 15.49 34.45L21.41 37.89C21.59 38.01 21.83 38.01 22.02 37.89C22.2 37.8 22.32 37.58 22.32 37.37L22.3 21.67Z" fill="#333333" fill-opacity="1.000000" fill-rule="nonzero"/>
	<path id="Vector" d="M70.14 0.07C69.95 -0.03 69.72 -0.03 69.56 0.07C69.37 0.19 69.25 0.38 69.25 0.59L69.25 16.14C69.25 16.29 69.18 16.43 69.04 16.53C68.9 16.6 68.76 16.6 68.62 16.53L66.13 15.07C65.75 14.85 65.31 14.85 64.93 15.07L54.98 20.93C54.6 21.14 54.37 21.55 54.37 21.98L54.37 33.68C54.37 34.11 54.6 34.52 54.98 34.73L64.93 40.6C65.31 40.81 65.75 40.81 66.13 40.6L76.08 34.73C76.46 34.52 76.69 34.11 76.69 33.68L76.69 4.52C76.69 4.06 76.46 3.66 76.08 3.44L70.14 0.07ZM69.23 29.83C69.23 29.95 69.18 30.04 69.09 30.09L65.68 32.1C65.59 32.15 65.47 32.15 65.38 32.1L61.97 30.09C61.88 30.04 61.83 29.92 61.83 29.83L61.83 25.81C61.83 25.69 61.88 25.59 61.97 25.55L65.38 23.54C65.47 23.49 65.59 23.49 65.68 23.54L69.09 25.55C69.18 25.59 69.23 25.71 69.23 25.81L69.23 29.83Z" fill="#333333" fill-opacity="1.000000" fill-rule="nonzero"/>
	<path id="Vector" d="M103.27 25.71C103.64 25.5 103.85 25.09 103.85 24.66L103.85 21.81C103.85 21.38 103.62 20.98 103.27 20.76L93.38 14.92C93.01 14.71 92.56 14.71 92.19 14.92L82.23 20.79C81.86 21 81.62 21.41 81.62 21.84L81.62 33.54C81.62 33.97 81.86 34.38 82.23 34.59L92.12 40.33C92.49 40.55 92.94 40.55 93.29 40.33L99.28 36.93C99.46 36.84 99.58 36.62 99.58 36.41C99.58 36.19 99.46 35.98 99.28 35.88L89.28 30.02C89.09 29.9 88.97 29.71 88.97 29.49L88.97 25.83C88.97 25.62 89.09 25.4 89.28 25.31L92.4 23.49C92.59 23.37 92.82 23.37 93.01 23.49L96.13 25.31C96.32 25.43 96.44 25.62 96.44 25.83L96.44 28.7C96.44 28.92 96.55 29.14 96.74 29.23C96.93 29.35 97.16 29.35 97.35 29.23L103.27 25.71Z" fill="#333333" fill-opacity="1.000000" fill-rule="nonzero"/>
	<path id="Vector" d="M92.63 25.16C92.7 25.12 92.8 25.12 92.87 25.16L94.77 26.29C94.84 26.34 94.89 26.41 94.89 26.5L94.89 28.75C94.89 28.85 94.84 28.92 94.77 28.97L92.87 30.09C92.8 30.14 92.7 30.14 92.63 30.09L90.73 28.97C90.66 28.92 90.61 28.85 90.61 28.75L90.61 26.5C90.61 26.41 90.66 26.34 90.73 26.29L92.63 25.16Z" fill="#539E43" fill-opacity="1.000000" fill-rule="nonzero"/>
	<mask id="mask15_1931" mask-type="alpha" maskUnits="userSpaceOnUse" x="27.279419" y="14.815430" width="22.138153" height="25.707275">
		<path id="Vector" d="M38.94 14.97C38.57 14.76 38.12 14.76 37.74 14.97L27.86 20.79C27.49 21 27.27 21.41 27.27 21.84L27.27 33.49C27.27 33.92 27.51 34.33 27.86 34.54L37.74 40.36C38.12 40.57 38.57 40.57 38.94 40.36L48.83 34.54C49.2 34.33 49.41 33.92 49.41 33.49L49.41 21.84C49.41 21.41 49.18 21 48.83 20.79L38.94 14.97Z" fill="#FFFFFF" fill-opacity="1.000000" fill-rule="nonzero"/>
	</mask>
	<g mask="url(#mask15_1931)">
		<path id="Vector" d="M38.94 14.97C38.57 14.76 38.12 14.76 37.74 14.97L27.86 20.79C27.49 21 27.27 21.41 27.27 21.84L27.27 33.49C27.27 33.92 27.51 34.33 27.86 34.54L37.74 40.36C38.12 40.57 38.57 40.57 38.94 40.36L48.83 34.54C49.2 34.33 49.41 33.92 49.41 33.49L49.41 21.84C49.41 21.41 49.18 21 48.83 20.79L38.94 14.97Z" fill="url(#paint_linear_15_1933_0)" fill-opacity="1.000000" fill-rule="nonzero"/>
	</g>
	<g mask="url(#mask15_1931)">
		<path id="Vector" d="M48.85 20.79L38.92 14.97C38.82 14.92 38.71 14.88 38.61 14.85L27.49 34.28C27.58 34.4 27.7 34.49 27.81 34.57L37.74 40.38C38.03 40.55 38.36 40.59 38.66 40.5L49.11 21.02C49.04 20.93 48.94 20.86 48.85 20.79Z" fill="url(#paint_linear_15_1937_0)" fill-opacity="1.000000" fill-rule="nonzero"/>
	</g>
	<g mask="url(#mask15_1931)">
		<path id="Vector" d="M37.42 12.84L37.28 12.91L37.46 12.91L37.42 12.84Z" fill="url(#paint_linear_15_1942_0)" fill-opacity="1.000000" fill-rule="evenodd"/>
		<path id="Vector" d="M48.87 34.54C49.15 34.37 49.37 34.09 49.46 33.78L38.57 14.83C38.28 14.78 37.98 14.8 37.72 14.97L27.86 20.76L38.5 40.52C38.64 40.5 38.8 40.45 38.94 40.38L48.87 34.54Z" fill="url(#paint_linear_15_1943_0)" fill-opacity="1.000000" fill-rule="evenodd"/>
		<path id="Vector" d="M49.79 34.35L49.72 34.23L49.72 34.4L49.79 34.35Z" fill="url(#paint_linear_15_1944_0)" fill-opacity="1.000000" fill-rule="evenodd"/>
		<path id="Vector" d="M48.87 34.54L38.97 40.36C38.82 40.43 38.68 40.48 38.52 40.5L38.71 40.86L49.69 34.37L49.69 34.23L49.41 33.75C49.37 34.09 49.15 34.37 48.87 34.54Z" fill="url(#paint_linear_15_1945_0)" fill-opacity="1.000000" fill-rule="evenodd"/>
		<path id="Vector" d="M48.87 34.54L38.97 40.36C38.82 40.43 38.68 40.48 38.52 40.5L38.71 40.86L49.69 34.37L49.69 34.23L49.41 33.75C49.37 34.09 49.15 34.37 48.87 34.54Z" fill="url(#paint_linear_15_1946_0)" fill-opacity="1.000000" fill-rule="evenodd"/>
	</g>
</svg>
