<svg width="71.558380" height="64.647705" viewBox="0 0 71.5584 64.6477" fill="none" xmlns="http://www.w3.org/2000/svg" xmlns:xlink="http://www.w3.org/1999/xlink">
	<desc>
			Created with Pixso.
	</desc>
	<defs/>
	<path id="Vector" d="M0 32.2C0 37.63 5.27 42.7 13.59 45.56C11.93 53.96 13.29 60.74 17.85 63.38C22.53 66.09 29.5 64.21 36.12 58.4C42.58 63.98 49.1 66.17 53.65 63.53C58.33 60.81 59.75 53.57 58.04 44.91C66.71 42.03 71.55 37.7 71.55 32.2C71.55 26.9 66.27 22.31 58.06 19.47C59.9 10.45 58.34 3.84 53.6 1.09C49.02 -1.56 42.43 0.75 35.88 6.47C29.07 0.4 22.54 -1.46 17.8 1.3C13.23 3.95 11.92 10.85 13.59 19.41C5.55 22.23 0 26.92 0 32.2Z" fill="#FFFFFF" fill-opacity="1.000000" fill-rule="nonzero"/>
	<path id="Vector" d="M56.32 22.29C55.66 22.06 54.98 21.85 54.28 21.64C54.39 21.17 54.5 20.7 54.59 20.24C56.14 12.69 55.13 6.6 51.67 4.6C48.35 2.68 42.93 4.68 37.46 9.47C36.93 9.93 36.4 10.42 35.87 10.93C35.52 10.59 35.17 10.26 34.82 9.95C29.08 4.83 23.33 2.67 19.88 4.68C16.56 6.61 15.58 12.33 16.98 19.49C17.11 20.18 17.27 20.88 17.45 21.6C16.63 21.83 15.85 22.08 15.1 22.35C8.37 24.7 4.07 28.4 4.07 32.23C4.07 36.19 8.68 40.16 15.69 42.56C16.24 42.75 16.82 42.93 17.41 43.1C17.22 43.88 17.05 44.64 16.91 45.38C15.58 52.42 16.62 58 19.92 59.92C23.33 61.89 29.06 59.86 34.64 54.96C35.08 54.58 35.52 54.17 35.96 53.74C36.54 54.29 37.11 54.82 37.68 55.31C43.08 59.98 48.42 61.87 51.72 59.95C55.12 57.96 56.23 51.96 54.79 44.66C54.68 44.11 54.56 43.54 54.41 42.96C54.82 42.84 55.21 42.71 55.59 42.59C62.88 40.16 67.62 36.24 67.62 32.23C67.62 28.38 63.18 24.66 56.32 22.29Z" fill="#53C1DE" fill-opacity="1.000000" fill-rule="nonzero"/>
	<path id="Vector" d="M54.74 40C54.39 40.11 54.04 40.22 53.67 40.33C52.87 37.77 51.78 35.05 50.46 32.24C51.72 29.5 52.77 26.81 53.55 24.27C54.2 24.46 54.83 24.66 55.44 24.87C61.32 26.9 64.91 29.91 64.91 32.23C64.91 34.7 61.03 37.9 54.74 40ZM52.13 45.19C52.77 48.42 52.86 51.34 52.44 53.62C52.06 55.67 51.3 57.04 50.36 57.59C48.35 58.75 44.07 57.24 39.45 53.24C38.92 52.78 38.39 52.3 37.85 51.78C39.64 49.81 41.43 47.52 43.18 44.98C46.25 44.71 49.15 44.26 51.79 43.65C51.92 44.17 52.03 44.69 52.13 45.19ZM25.74 57.38C23.78 58.08 22.22 58.1 21.28 57.55C19.27 56.39 18.44 51.91 19.58 45.89C19.71 45.2 19.86 44.49 20.04 43.77C22.64 44.35 25.53 44.77 28.61 45.02C30.36 47.5 32.21 49.79 34.06 51.79C33.66 52.18 33.25 52.56 32.85 52.91C30.38 55.07 27.91 56.61 25.74 57.38ZM16.57 39.98C13.47 38.92 10.91 37.53 9.16 36.02C7.58 34.67 6.78 33.32 6.78 32.23C6.78 29.9 10.23 26.94 15.99 24.92C16.69 24.68 17.42 24.45 18.18 24.23C18.97 26.83 20.01 29.55 21.27 32.3C20 35.08 18.94 37.84 18.14 40.47C17.6 40.32 17.07 40.15 16.57 39.98ZM19.64 18.96C18.45 12.83 19.24 8.2 21.24 7.04C23.36 5.81 28.06 7.57 33.02 11.99C33.34 12.27 33.65 12.57 33.97 12.87C32.13 14.87 30.3 17.13 28.56 19.61C25.57 19.88 22.71 20.33 20.08 20.93C19.91 20.26 19.77 19.61 19.64 18.96ZM47.05 25.77C46.43 24.67 45.78 23.61 45.12 22.57C47.15 22.83 49.09 23.17 50.92 23.59C50.37 25.35 49.69 27.2 48.88 29.09C48.31 27.99 47.7 26.88 47.05 25.77ZM35.88 14.82C37.13 16.19 38.38 17.71 39.62 19.36C38.37 19.3 37.11 19.27 35.85 19.27C34.59 19.27 33.34 19.3 32.1 19.36C33.34 17.72 34.6 16.2 35.88 14.82ZM24.63 25.78C24 26.88 23.4 27.98 22.83 29.09C22.04 27.2 21.36 25.35 20.81 23.56C22.62 23.15 24.56 22.82 26.57 22.57C25.91 23.61 25.25 24.69 24.63 25.78L24.63 25.78ZM26.63 42.09C24.55 41.85 22.59 41.54 20.77 41.14C21.34 39.32 22.03 37.43 22.83 35.5C23.4 36.61 24 37.71 24.64 38.81L24.64 38.81C25.28 39.92 25.95 41.02 26.63 42.09ZM35.95 49.83C34.66 48.43 33.38 46.89 32.13 45.23C33.34 45.28 34.58 45.3 35.85 45.3C37.14 45.3 38.42 45.27 39.68 45.21C38.44 46.9 37.19 48.45 35.95 49.83ZM48.91 35.4C49.76 37.35 50.47 39.23 51.04 41.02C49.2 41.44 47.21 41.78 45.11 42.04C45.77 40.99 46.43 39.9 47.07 38.79C47.71 37.66 48.33 36.53 48.91 35.4ZM44.71 37.42C43.72 39.16 42.7 40.81 41.66 42.37C39.78 42.5 37.83 42.57 35.85 42.57C33.87 42.57 31.94 42.51 30.09 42.39C29.01 40.81 27.97 39.15 26.99 37.44L26.99 37.44C26 35.73 25.09 34.01 24.27 32.29C25.09 30.58 26 28.85 26.98 27.15L26.98 27.15C27.96 25.44 28.99 23.79 30.06 22.22C31.95 22.07 33.89 22 35.84 22L35.85 22C37.81 22 39.75 22.07 41.64 22.22C42.69 23.78 43.72 25.42 44.7 27.13C45.7 28.86 46.62 30.57 47.44 32.26C46.62 33.96 45.71 35.7 44.71 37.42ZM50.31 6.96C52.44 8.19 53.27 13.17 51.93 19.69C51.85 20.11 51.75 20.53 51.65 20.96C49.01 20.35 46.15 19.89 43.15 19.61C41.4 17.11 39.59 14.84 37.78 12.87C38.27 12.4 38.75 11.95 39.24 11.53C43.93 7.42 48.32 5.8 50.31 6.96Z" fill="#FFFFFF" fill-opacity="1.000000" fill-rule="nonzero"/>
	<path id="Vector" d="M35.85 26.53C38.98 26.53 41.52 29.08 41.52 32.23C41.52 35.38 38.98 37.93 35.85 37.93C32.71 37.93 30.17 35.38 30.17 32.23C30.17 29.08 32.71 26.53 35.85 26.53Z" fill="#53C1DE" fill-opacity="1.000000" fill-rule="nonzero"/>
</svg>
